<svg version="1.1" id="Layer_1" xmlns="http://www.w3.org/2000/svg" xmlns:xlink="http://www.w3.org/1999/xlink" x="0px" y="0px"
	 width="100%" viewBox="0 0 235 300" enable-background="new 0 0 235 300" xml:space="preserve">
<path fill="#000000" opacity="1.000000" stroke="none" 
	d="
M236.000000,85.000000 
	C236.000000,86.388893 236.000000,87.777779 235.684143,89.712433 
	C233.770157,91.420097 232.315781,92.904587 230.550446,93.691162 
	C219.699387,98.526039 208.737366,103.113495 197.918839,108.018318 
	C196.045441,108.867668 193.661697,110.593918 193.244553,112.330818 
	C190.326508,124.481079 182.213242,133.201553 174.312195,142.085403 
	C173.513519,142.983444 172.129761,143.763779 170.979813,143.819397 
	C170.058685,143.863953 169.080292,142.724838 168.127319,142.111023 
	C168.838074,141.417984 169.452713,140.563324 170.282242,140.070023 
	C171.505829,139.342438 173.388901,139.236893 174.111816,138.233154 
	C178.904251,131.578949 183.587753,124.836571 188.021973,117.939819 
	C189.416718,115.770515 189.937256,113.039154 190.938950,110.347252 
	C185.558563,110.165970 183.286819,112.139931 181.965668,116.733986 
	C180.535416,121.707306 177.966385,126.448067 175.285797,130.926178 
	C173.977646,133.111557 171.287704,134.469788 168.491165,136.816803 
	C168.126068,133.187378 167.887970,130.820435 167.649887,128.453476 
	C167.257248,128.225281 166.864609,127.997078 166.471985,127.768875 
	C165.349152,129.146698 163.617142,130.362671 163.201233,131.928284 
	C160.245544,143.054321 157.563263,154.252914 154.784439,165.426041 
	C153.837402,169.233841 152.863190,173.034897 151.901382,176.839035 
	C152.323425,176.977768 152.745453,177.116516 153.167496,177.255249 
	C159.675354,170.476486 164.838913,162.901093 166.492096,152.649628 
	C170.586456,156.194260 174.471664,159.002243 177.667862,162.449127 
	C183.080109,168.285828 190.836380,172.269318 192.692566,181.072495 
	C192.943954,182.264694 194.379959,183.568970 195.589340,184.141830 
	C209.022964,190.505157 222.520050,196.734497 236.000000,203.000000 
	C236.000000,203.000000 236.000000,203.500000 235.586761,203.861435 
	C220.680206,201.284836 206.186890,198.346817 191.420822,195.353485 
	C188.269043,207.991379 185.036850,220.573517 182.035461,233.210480 
	C181.100876,237.145462 179.332123,238.853317 175.014954,239.165939 
	C168.338364,239.649399 161.737137,241.173462 154.665604,242.327789 
	C155.341675,245.808594 155.823380,249.025558 156.603073,252.168594 
	C159.238052,262.790405 163.162521,273.719421 148.862717,279.533386 
	C148.558487,279.657043 148.255692,279.812134 147.993912,280.008240 
	C138.659531,287.001404 129.330109,294.001160 120.000000,301.000000 
	C119.250000,301.000000 118.500000,301.000000 117.241982,300.684998 
	C104.378006,291.294250 92.060608,282.165131 79.632408,273.189423 
	C77.249023,271.468109 76.777672,269.807739 77.433784,266.950470 
	C79.293648,258.850952 80.730209,250.654266 82.365738,242.331665 
	C75.197227,241.150131 68.741631,239.612015 62.212120,239.172913 
	C57.694626,238.869110 55.894600,237.141479 54.914150,232.935089 
	C51.976105,220.330032 48.675949,207.809357 45.519756,195.266190 
	C39.876415,196.473648 34.752525,197.657822 29.592495,198.654953 
	C20.072855,200.494568 10.532009,202.224411 1.000000,204.000000 
	C1.000000,204.000000 1.000000,203.500000 1.337899,203.121658 
	C14.992133,196.529449 28.322231,190.344604 41.598869,184.047073 
	C42.670273,183.538879 43.987221,182.352905 44.149616,181.318542 
	C45.175095,174.786819 50.225548,171.238998 54.433994,167.148254 
	C59.478878,162.244476 64.824753,157.650345 69.263802,153.626038 
	C74.708282,162.111099 79.535439,170.504272 85.220085,178.269745 
	C92.087349,187.650757 99.620155,196.611908 111.841400,199.350906 
	C113.485703,199.719437 116.531906,199.860580 116.839348,199.172867 
	C118.630356,195.166534 122.304031,191.507431 121.066528,188.054947 
	C115.779129,185.250351 111.795326,183.137238 107.811516,181.024109 
	C107.861748,180.305542 107.911972,179.586975 107.962196,178.868408 
	C112.116798,177.546570 116.271408,176.224716 121.340561,174.611893 
	C118.450485,173.246384 116.122169,171.867661 113.612396,171.037552 
	C111.019417,170.179916 108.250092,169.855423 105.557899,169.297714 
	C105.605988,168.865189 105.654076,168.432678 105.702156,168.000153 
	C107.642677,168.000153 109.584145,167.960876 111.523521,168.008057 
	C116.030693,168.117722 119.970711,168.854172 120.559738,161.755157 
	C121.071114,155.591949 121.361908,153.907684 115.206657,152.207855 
	C114.101723,151.902740 112.697441,152.262390 111.806450,151.710052 
	C110.742279,151.050385 110.081627,149.739777 109.246178,148.711136 
	C110.514984,148.185379 111.867439,147.098312 113.032021,147.271866 
	C114.588638,147.503876 115.999496,148.713776 117.566193,149.553726 
	C117.566193,142.440430 117.566193,135.759216 117.566193,129.078003 
	C113.070541,134.877701 105.461166,138.671112 106.904366,147.569839 
	C107.059608,148.527008 106.436234,149.876587 105.741417,150.660889 
	C102.120262,154.748383 98.359100,158.711838 94.463379,162.521759 
	C94.157791,162.194031 94.035477,162.063019 93.974380,161.559875 
	C96.546692,154.123260 99.057762,147.058762 101.684944,139.667618 
	C92.705360,135.999237 84.193291,132.457748 75.608673,129.101807 
	C74.615997,128.713745 72.592735,128.914536 72.114120,129.593903 
	C69.191360,133.742599 65.790535,131.798752 62.423981,130.690903 
	C60.815830,130.161697 59.242687,129.526108 57.653690,128.938705 
	C57.304523,129.430145 56.955360,129.921600 56.606194,130.413040 
	C59.950687,133.592743 63.248470,136.824173 66.672752,139.915497 
	C67.520836,140.681107 68.861176,140.886002 69.783295,141.597443 
	C69.979797,141.749039 69.305466,143.627350 69.092941,143.615585 
	C67.529793,143.529053 65.450050,143.711380 64.513779,142.800705 
	C57.144310,135.632645 49.925121,128.101547 46.796165,118.098946 
	C45.381584,113.576828 43.398968,111.395981 38.941971,110.963097 
	C37.479469,110.821045 36.027611,110.390488 34.613956,109.952759 
	C22.976053,106.349228 10.929442,103.720955 1.000000,96.000000 
	C1.000000,94.933151 1.000000,93.866295 1.363926,92.254356 
	C8.566593,90.788567 15.382273,89.607895 22.248657,88.998817 
	C38.874168,87.524078 55.506176,85.518074 72.166374,85.160187 
	C111.095757,84.323929 150.043259,84.332787 188.983307,83.985100 
	C190.140045,83.974777 191.294479,83.791946 192.451523,83.711845 
	C207.010025,82.703934 221.564407,81.849113 236.000000,85.000000 
M80.347488,199.885559 
	C79.948860,199.607574 79.550224,199.329605 79.151596,199.051620 
	C79.406487,199.724762 79.661377,200.397888 80.028236,201.778076 
	C91.327599,221.386276 102.626961,240.994476 113.926315,260.602692 
	C114.499298,260.440308 115.072281,260.277954 115.645256,260.115601 
	C114.901276,255.048721 115.712135,248.941132 113.139801,245.097992 
	C102.889404,229.783539 91.585129,215.174484 80.347488,199.885559 
M155.840881,200.766129 
	C147.030151,212.876297 138.539703,225.238342 129.288864,237.002426 
	C123.719620,244.084671 120.128113,251.150543 122.679489,260.714386 
	C123.273216,259.926392 123.694412,259.468781 124.001877,258.944489 
	C130.919189,247.148697 137.894638,235.386185 144.705322,223.529022 
	C148.962906,216.116699 152.968567,208.559677 157.564056,200.767334 
	C157.653946,200.136902 157.743835,199.506485 157.937958,198.145004 
	C157.075897,199.302963 156.705139,199.801010 155.840881,200.766129 
M132.120422,209.662369 
	C135.434265,205.745834 138.748123,201.829315 142.061966,197.912781 
	C141.879517,197.490128 141.697067,197.067474 141.514618,196.644821 
	C122.887230,208.798859 105.823776,207.472260 90.606598,190.231262 
	C90.382874,190.801071 90.159142,191.370880 89.935417,191.940689 
	C99.369659,203.215195 108.803894,214.489685 118.487778,226.062531 
	C123.126709,220.614700 127.503571,215.474640 132.120422,209.662369 
M77.501686,177.009567 
	C79.606133,179.407059 81.710579,181.804535 83.815025,184.202026 
	C84.209488,183.835068 84.603958,183.468124 84.998421,183.101181 
	C81.229881,178.470947 77.461342,173.840714 73.692810,169.210480 
	C73.285355,169.503662 72.877907,169.796844 72.470451,170.090042 
	C73.978325,172.225204 75.486191,174.360367 77.501686,177.009567 
M85.263817,186.363922 
	C85.914238,186.888489 86.564659,187.413055 87.215080,187.937622 
	C87.458458,187.561676 87.701843,187.185730 87.945221,186.809769 
	C87.059250,186.434540 86.173286,186.059296 85.263817,186.363922 
M147.361603,190.161331 
	C147.014099,190.569046 146.666611,190.976776 146.319107,191.384491 
	C146.565582,191.519302 146.995544,191.805939 147.029495,191.764893 
	C147.301682,191.435974 147.499039,191.045181 147.361603,190.161331 
M77.758667,197.715012 
	C77.869255,197.494644 78.014618,197.282364 78.068916,197.048920 
	C78.084885,196.980301 77.842758,196.851639 77.718925,196.750504 
	C77.590134,196.991531 77.461349,197.232559 77.758667,197.715012 
M158.975464,196.949432 
	C159.064377,197.189560 159.153290,197.429688 159.242218,197.669815 
	C159.382034,197.596054 159.650162,197.492020 159.641052,197.453384 
	C159.577240,197.182770 159.456146,196.925644 158.975464,196.949432 
M149.544968,187.327011 
	C149.532532,187.611511 149.520096,187.896027 149.507645,188.180542 
	C149.660767,188.145203 149.924393,188.142944 149.946701,188.068436 
	C150.018890,187.827225 150.002502,187.559464 149.544968,187.327011 
z"/>
<path fill="#00FF0000" opacity="1.000000" stroke="none" 
	d="
M236.000000,84.531342 
	C221.564407,81.849113 207.010025,82.703934 192.451523,83.711845 
	C191.294479,83.791946 190.140045,83.974777 188.983307,83.985100 
	C150.043259,84.332787 111.095757,84.323929 72.166374,85.160187 
	C55.506176,85.518074 38.874168,87.524078 22.248657,88.998817 
	C15.382273,89.607895 8.566593,90.788567 1.363926,91.854630 
	C1.000000,61.741394 1.000000,31.482790 1.000000,1.000000 
	C29.687172,1.000000 58.374928,1.000000 87.359360,1.300631 
	C85.037926,3.300320 81.952881,4.560906 79.878174,6.770257 
	C67.281929,20.184002 64.919617,37.537846 61.148262,55.440929 
	C71.583908,49.377411 81.758743,45.777626 92.701874,44.649845 
	C99.267342,43.973221 105.853836,43.452728 112.443748,43.108345 
	C113.538551,43.051132 114.699409,44.258083 115.829742,44.880852 
	C114.612305,45.584518 113.456612,46.709591 112.163826,46.899002 
	C109.881630,47.233368 107.510254,46.892731 105.186050,47.017708 
	C92.401161,47.705193 79.974800,49.864513 68.433258,55.826767 
	C59.973629,60.196930 57.751793,64.797302 59.865208,75.199768 
	C101.700394,67.389389 143.633072,68.540901 185.764740,75.682014 
	C184.603241,73.228607 183.330109,71.520905 181.701324,70.279938 
	C178.316742,67.701233 176.796448,64.272972 176.165939,60.208652 
	C175.181900,53.865395 174.511047,47.424946 172.895111,41.237850 
	C168.808914,25.592634 165.260986,9.474712 149.000000,1.000000 
	C177.925613,1.000000 206.851227,1.000000 236.000000,1.000000 
	C236.000000,28.687160 236.000000,56.374924 236.000000,84.531342 
z"/>
<path fill="#00FF0000" opacity="1.000000" stroke="none" 
	d="
M1.000000,204.468658 
	C10.532009,202.224411 20.072855,200.494568 29.592495,198.654953 
	C34.752525,197.657822 39.876415,196.473648 45.519756,195.266190 
	C48.675949,207.809357 51.976105,220.330032 54.914150,232.935089 
	C55.894600,237.141479 57.694626,238.869110 62.212120,239.172913 
	C68.741631,239.612015 75.197227,241.150131 82.365738,242.331665 
	C80.730209,250.654266 79.293648,258.850952 77.433784,266.950470 
	C76.777672,269.807739 77.249023,271.468109 79.632408,273.189423 
	C92.060608,282.165131 104.378006,291.294250 116.866982,300.684998 
	C78.412903,301.000000 39.825813,301.000000 1.000000,301.000000 
	C1.000000,268.979492 1.000000,236.958405 1.000000,204.468658 
z"/>
<path fill="#00FF0000" opacity="1.000000" stroke="none" 
	d="
M120.468658,301.000000 
	C129.330109,294.001160 138.659531,287.001404 147.993912,280.008240 
	C148.255692,279.812134 148.558487,279.657043 148.862717,279.533386 
	C163.162521,273.719421 159.238052,262.790405 156.603073,252.168594 
	C155.823380,249.025558 155.341675,245.808594 154.665604,242.327789 
	C161.737137,241.173462 168.338364,239.649399 175.014954,239.165939 
	C179.332123,238.853317 181.100876,237.145462 182.035461,233.210480 
	C185.036850,220.573517 188.269043,207.991379 191.420822,195.353485 
	C206.186890,198.346817 220.680206,201.284836 235.586761,204.111435 
	C236.000000,236.266800 236.000000,268.533600 236.000000,301.000000 
	C197.645996,301.000000 159.291656,301.000000 120.468658,301.000000 
z"/>
<path fill="#00FF0000" opacity="1.000000" stroke="none" 
	d="
M94.646660,162.718460 
	C98.359100,158.711838 102.120262,154.748383 105.741417,150.660889 
	C106.436234,149.876587 107.059608,148.527008 106.904366,147.569839 
	C105.461166,138.671112 113.070541,134.877701 117.566193,129.078003 
	C117.566193,135.759216 117.566193,142.440430 117.566193,149.553726 
	C115.999496,148.713776 114.588638,147.503876 113.032021,147.271866 
	C111.867439,147.098312 110.514984,148.185379 109.246178,148.711136 
	C110.081627,149.739777 110.742279,151.050385 111.806450,151.710052 
	C112.697441,152.262390 114.101723,151.902740 115.206657,152.207855 
	C121.361908,153.907684 121.071114,155.591949 120.559738,161.755157 
	C119.970711,168.854172 116.030693,168.117722 111.523521,168.008057 
	C109.584145,167.960876 107.642677,168.000153 105.702156,168.000153 
	C105.654076,168.432678 105.605988,168.865189 105.557899,169.297714 
	C108.250092,169.855423 111.019417,170.179916 113.612396,171.037552 
	C116.122169,171.867661 118.450485,173.246384 121.340561,174.611893 
	C116.271408,176.224716 112.116798,177.546570 107.962196,178.868408 
	C107.911972,179.586975 107.861748,180.305542 107.811516,181.024109 
	C111.795326,183.137238 115.779129,185.250351 121.066528,188.054947 
	C122.304031,191.507431 118.630356,195.166534 116.839348,199.172867 
	C116.531906,199.860580 113.485703,199.719437 111.841400,199.350906 
	C99.620155,196.611908 92.087349,187.650757 85.220085,178.269745 
	C79.535439,170.504272 74.708282,162.111099 69.263802,153.626038 
	C64.824753,157.650345 59.478878,162.244476 54.433994,167.148254 
	C50.225548,171.238998 45.175095,174.786819 44.149616,181.318542 
	C43.987221,182.352905 42.670273,183.538879 41.598869,184.047073 
	C28.322231,190.344604 14.992133,196.529449 1.337899,202.871658 
	C1.000000,167.645767 1.000000,132.291550 1.000000,96.468658 
	C10.929442,103.720955 22.976053,106.349228 34.613956,109.952759 
	C36.027611,110.390488 37.479469,110.821045 38.941971,110.963097 
	C43.398968,111.395981 45.381584,113.576828 46.796165,118.098946 
	C49.925121,128.101547 57.144310,135.632645 64.513779,142.800705 
	C65.450050,143.711380 67.529793,143.529053 69.092941,143.615585 
	C69.305466,143.627350 69.979797,141.749039 69.783295,141.597443 
	C68.861176,140.886002 67.520836,140.681107 66.672752,139.915497 
	C63.248470,136.824173 59.950687,133.592743 56.606194,130.413040 
	C56.955360,129.921600 57.304523,129.430145 57.653690,128.938705 
	C59.242687,129.526108 60.815830,130.161697 62.423981,130.690903 
	C65.790535,131.798752 69.191360,133.742599 72.114120,129.593903 
	C72.592735,128.914536 74.615997,128.713745 75.608673,129.101807 
	C84.193291,132.457748 92.705360,135.999237 101.684944,139.667618 
	C99.057762,147.058762 96.546692,154.123260 93.755676,161.684219 
	C93.464394,162.626465 93.453056,163.072235 93.441727,163.518021 
	C93.843361,163.251495 94.245010,162.984970 94.646660,162.718460 
z"/>
<path fill="#000000" opacity="1.000000" stroke="none" 
	d="
M148.531586,1.000000 
	C165.260986,9.474712 168.808914,25.592634 172.895111,41.237850 
	C174.511047,47.424946 175.181900,53.865395 176.165939,60.208652 
	C176.796448,64.272972 178.316742,67.701233 181.701324,70.279938 
	C183.330109,71.520905 184.603241,73.228607 185.764740,75.682014 
	C143.633072,68.540901 101.700394,67.389389 59.865208,75.199768 
	C57.751793,64.797302 59.973629,60.196930 68.433258,55.826767 
	C79.974800,49.864513 92.401161,47.705193 105.186050,47.017708 
	C107.510254,46.892731 109.881630,47.233368 112.163826,46.899002 
	C113.456612,46.709591 114.612305,45.584518 115.829742,44.880852 
	C114.699409,44.258083 113.538551,43.051132 112.443748,43.108345 
	C105.853836,43.452728 99.267342,43.973221 92.701874,44.649845 
	C81.758743,45.777626 71.583908,49.377411 61.148262,55.440929 
	C64.919617,37.537846 67.281929,20.184002 79.878174,6.770257 
	C81.952881,4.560906 85.037926,3.300320 87.828018,1.300631 
	C94.354401,1.000000 100.708794,1.000000 107.769989,1.320789 
	C115.372726,3.182682 122.248589,4.081885 129.000000,1.000000 
	C135.354401,1.000000 141.708786,1.000000 148.531586,1.000000 
M81.410469,41.998577 
	C89.482033,39.882874 97.637619,38.027607 105.566505,35.469666 
	C107.566879,34.824326 109.578201,32.183273 110.313377,30.026115 
	C112.525566,23.535196 114.247467,16.862331 115.798798,10.176482 
	C116.041420,9.130821 114.598099,6.744058 113.589348,6.518178 
	C108.534218,5.386223 103.364265,4.766971 98.200142,3.962147 
	C97.199280,18.435371 88.973427,26.031136 73.603218,27.200386 
	C69.722084,37.735146 71.669418,41.900272 81.410469,41.998577 
z"/>
<path fill="#00FF0000" opacity="1.000000" stroke="none" 
	d="
M236.000000,202.531342 
	C222.520050,196.734497 209.022964,190.505157 195.589340,184.141830 
	C194.379959,183.568970 192.943954,182.264694 192.692566,181.072495 
	C190.836380,172.269318 183.080109,168.285828 177.667862,162.449127 
	C174.471664,159.002243 170.586456,156.194260 166.492096,152.649628 
	C164.838913,162.901093 159.675354,170.476486 153.167496,177.255249 
	C152.745453,177.116516 152.323425,176.977768 151.901382,176.839035 
	C152.863190,173.034897 153.837402,169.233841 154.784439,165.426041 
	C157.563263,154.252914 160.245544,143.054321 163.201233,131.928284 
	C163.617142,130.362671 165.349152,129.146698 166.471985,127.768875 
	C166.864609,127.997078 167.257248,128.225281 167.649887,128.453476 
	C167.887970,130.820435 168.126068,133.187378 168.491165,136.816803 
	C171.287704,134.469788 173.977646,133.111557 175.285797,130.926178 
	C177.966385,126.448067 180.535416,121.707306 181.965668,116.733986 
	C183.286819,112.139931 185.558563,110.165970 190.938950,110.347252 
	C189.937256,113.039154 189.416718,115.770515 188.021973,117.939819 
	C183.587753,124.836571 178.904251,131.578949 174.111816,138.233154 
	C173.388901,139.236893 171.505829,139.342438 170.282242,140.070023 
	C169.452713,140.563324 168.838074,141.417984 168.127319,142.111023 
	C169.080292,142.724838 170.058685,143.863953 170.979813,143.819397 
	C172.129761,143.763779 173.513519,142.983444 174.312195,142.085403 
	C182.213242,133.201553 190.326508,124.481079 193.244553,112.330818 
	C193.661697,110.593918 196.045441,108.867668 197.918839,108.018318 
	C208.737366,103.113495 219.699387,98.526039 230.550446,93.691162 
	C232.315781,92.904587 233.770157,91.420097 235.684143,90.129097 
	C236.000000,127.354225 236.000000,164.708450 236.000000,202.531342 
z"/>
<path fill="#00FF0000" opacity="1.000000" stroke="none" 
	d="
M128.531464,1.000000 
	C122.248589,4.081885 115.372726,3.182682 108.238396,1.320789 
	C114.687645,1.000000 121.375282,1.000000 128.531464,1.000000 
z"/>
<path fill="#00FF0000" opacity="1.000000" stroke="none" 
	d="
M132.000427,209.998474 
	C127.503571,215.474640 123.126709,220.614700 118.487778,226.062531 
	C108.803894,214.489685 99.369659,203.215195 89.935417,191.940689 
	C90.159142,191.370880 90.382874,190.801071 90.606598,190.231262 
	C105.823776,207.472260 122.887230,208.798859 141.514618,196.644821 
	C141.697067,197.067474 141.879517,197.490128 142.061966,197.912781 
	C138.748123,201.829315 135.434265,205.745834 132.000427,209.998474 
z"/>
<path fill="#00FF0000" opacity="1.000000" stroke="none" 
	d="
M157.087265,201.067581 
	C152.968567,208.559677 148.962906,216.116699 144.705322,223.529022 
	C137.894638,235.386185 130.919189,247.148697 124.001877,258.944489 
	C123.694412,259.468781 123.273216,259.926392 122.679489,260.714386 
	C120.128113,251.150543 123.719620,244.084671 129.288864,237.002426 
	C138.539703,225.238342 147.030151,212.876297 156.275818,200.724747 
	C156.836273,200.811432 156.961761,200.939514 157.087265,201.067581 
z"/>
<path fill="#00FF0000" opacity="1.000000" stroke="none" 
	d="
M80.671036,200.304260 
	C91.585129,215.174484 102.889404,229.783539 113.139801,245.097992 
	C115.712135,248.941132 114.901276,255.048721 115.645256,260.115601 
	C115.072281,260.277954 114.499298,260.440308 113.926315,260.602692 
	C102.626961,240.994476 91.327599,221.386276 80.160965,201.232880 
	C80.419479,200.559891 80.545258,200.432083 80.671036,200.304260 
z"/>
<path fill="#00FF0000" opacity="1.000000" stroke="none" 
	d="
M77.247879,176.752548 
	C75.486191,174.360367 73.978325,172.225204 72.470451,170.090042 
	C72.877907,169.796844 73.285355,169.503662 73.692810,169.210480 
	C77.461342,173.840714 81.229881,178.470947 84.998421,183.101181 
	C84.603958,183.468124 84.209488,183.835068 83.815025,184.202026 
	C81.710579,181.804535 79.606133,179.407059 77.247879,176.752548 
z"/>
<path fill="#00FF0000" opacity="1.000000" stroke="none" 
	d="
M85.275566,186.023987 
	C86.173286,186.059296 87.059250,186.434540 87.945221,186.809769 
	C87.701843,187.185730 87.458458,187.561676 87.215080,187.937622 
	C86.564659,187.413055 85.914238,186.888489 85.275566,186.023987 
z"/>
<path fill="#00FF0000" opacity="1.000000" stroke="none" 
	d="
M147.540436,190.417328 
	C147.499039,191.045181 147.301682,191.435974 147.029495,191.764893 
	C146.995544,191.805939 146.565582,191.519302 146.319107,191.384491 
	C146.666611,190.976776 147.014099,190.569046 147.540436,190.417328 
z"/>
<path fill="#00FF0000" opacity="1.000000" stroke="none" 
	d="
M80.104988,200.879364 
	C79.661377,200.397888 79.406487,199.724762 79.151596,199.051620 
	C79.550224,199.329605 79.948860,199.607574 80.509262,200.094910 
	C80.545258,200.432083 80.419479,200.559891 80.104988,200.879364 
z"/>
<path fill="#00FF0000" opacity="1.000000" stroke="none" 
	d="
M156.522583,200.491211 
	C156.705139,199.801010 157.075897,199.302963 157.937958,198.145004 
	C157.743835,199.506485 157.653946,200.136902 157.325653,200.917450 
	C156.961761,200.939514 156.836273,200.811432 156.522583,200.491211 
z"/>
<path fill="#00FF0000" opacity="1.000000" stroke="none" 
	d="
M77.545609,197.594299 
	C77.461349,197.232559 77.590134,196.991531 77.718925,196.750504 
	C77.842758,196.851639 78.084885,196.980301 78.068916,197.048920 
	C78.014618,197.282364 77.869255,197.494644 77.545609,197.594299 
z"/>
<path fill="#00FF0000" opacity="1.000000" stroke="none" 
	d="
M159.164429,196.806824 
	C159.456146,196.925644 159.577240,197.182770 159.641052,197.453384 
	C159.650162,197.492020 159.382034,197.596054 159.242218,197.669815 
	C159.153290,197.429688 159.064377,197.189560 159.164429,196.806824 
z"/>
<path fill="#00FF0000" opacity="1.000000" stroke="none" 
	d="
M149.782608,187.314484 
	C150.002502,187.559464 150.018890,187.827225 149.946701,188.068436 
	C149.924393,188.142944 149.660767,188.145203 149.507645,188.180542 
	C149.520096,187.896027 149.532532,187.611511 149.782608,187.314484 
z"/>
<path fill="#000000" opacity="1.000000" stroke="none" 
	d="
M94.463379,162.521759 
	C94.245010,162.984970 93.843361,163.251495 93.441727,163.518021 
	C93.453056,163.072235 93.464394,162.626465 93.694443,162.056335 
	C94.035477,162.063019 94.157791,162.194031 94.463379,162.521759 
z"/>
<path fill="#00FF0000" opacity="1.000000" stroke="none" 
	d="
M80.966293,41.998878 
	C71.669418,41.900272 69.722084,37.735146 73.603218,27.200386 
	C88.973427,26.031136 97.199280,18.435371 98.200142,3.962147 
	C103.364265,4.766971 108.534218,5.386223 113.589348,6.518178 
	C114.598099,6.744058 116.041420,9.130821 115.798798,10.176482 
	C114.247467,16.862331 112.525566,23.535196 110.313377,30.026115 
	C109.578201,32.183273 107.566879,34.824326 105.566505,35.469666 
	C97.637619,38.027607 89.482033,39.882874 80.966293,41.998878 
z"/>
</svg>